# xmcd
#
# Track frame offsets: 
#        150
#        15390
#        23235
#        32212
#        46792
#        57957
#        69885
#        82247
#        92077
#        102812
#        113807
#        125367
#        137225
#        148525
#        162017
#        175115
#        188712
#        200455
#        211512
#        222055
#        233177
#        243770
#        255270
#        265687
#
# Disc length: 3704 seconds
#
# Revision: 2
# Processed by: cddbd v1.5.2PL0 Copyright (c) Steve Scherf et al.
# Submitted via: ExactAudioCopyFreeDBPlugin 1.0
#
DISCID=370e7618
DTITLE=Irma Thomas - Straight from the Soul
DYEAR=2004
DGENRE=Soul
TTITLE0=Take a Look
TTITLE1=Teasing But You're Pleasing
TTITLE2=Girl Needs Boy
TTITLE3=I Need Your Love So Bad
TTITLE4=Long After Tonight is All Over
TTITLE5=While the City Sleeps
TTITLE6=Breakaway
TTITLE7=What Are You Trying to Do
TTITLE8=The Hurt's All Gone
TTITLE9=Straight from the Heart
TTITLE10=Somebody Told You
TTITLE11=Two Winters Long
TTITLE12=It's Starting to Get to Me Now
TTITLE13=Some Things You Never Get Used To
TTITLE14=Time is on My Side
TTITLE15=Anyone Who Knows What Love Is (Will Understand)
TTITLE16=Wait Wait Wait
TTITLE17=I'm Gonna Cry Til My Tears Run Dry
TTITLE18=Sufferin' with the Blues
TTITLE19=Wish Someone Would Care
TTITLE20=You Don't Miss a Good Thing (Until It's Gone)
TTITLE21=Baby Don't Look Down
TTITLE22=Live Again
TTITLE23=I Haven't Got Time to Cry
EXTD=YEAR: 2004
EXTT0=
EXTT1=
EXTT2=
EXTT3=
EXTT4=
EXTT5=
EXTT6=
EXTT7=
EXTT8=
EXTT9=
EXTT10=
EXTT11=
EXTT12=
EXTT13=
EXTT14=
EXTT15=
EXTT16=
EXTT17=
EXTT18=
EXTT19=
EXTT20=
EXTT21=
EXTT22=
EXTT23=
PLAYORDER=
